<svg width="157" height="157" viewBox="0 0 157 157" fill="none" xmlns="http://www.w3.org/2000/svg">
<g clip-path="url(#clip0_82_34)">
<path d="M69.6939 42.39C103.604 42.39 105.701 127.165 102.51 169.553H30.0409C27.3062 116.227 27.3062 42.39 69.6939 42.39Z" fill="white"/>
<path fill-rule="evenodd" clip-rule="evenodd" d="M101.239 168.186H31.3407C30.0186 141.794 29.4473 110.776 34.288 86.2388C36.7488 73.765 40.5835 63.1048 46.3183 55.5897C52.007 48.1348 59.5695 43.7573 69.6939 43.7573C77.4823 43.7573 83.599 48.5867 88.3885 56.9764C93.185 65.3783 96.4936 77.1129 98.6657 90.2984C102.92 116.124 102.746 147.067 101.239 168.186ZM90.7635 55.6206C85.7223 46.7902 78.8606 41.0226 69.6939 41.0226C58.6245 41.0226 50.2916 45.8748 44.1442 53.9307C38.0428 61.9264 34.1008 73.0583 31.605 85.7095C26.6119 111.019 27.3082 142.965 28.6753 169.623L28.7419 170.921H103.779L103.874 169.656C105.473 148.402 105.752 116.493 101.364 89.8539C99.172 76.5472 95.7976 64.4387 90.7635 55.6206Z" fill="#36414F"/>
<path d="M74.9817 113.685H134.179C138.663 113.685 147.633 115.067 147.633 120.594C147.633 127.502 128.797 135.563 104.58 135.563C80.3632 135.563 58.837 127.502 60.1824 120.594C61.2587 115.067 70.497 113.685 74.9817 113.685Z" fill="#FDC910"/>
<path fill-rule="evenodd" clip-rule="evenodd" d="M142.113 116.349C144.799 117.342 146.265 118.748 146.265 120.594C146.265 121.693 145.49 123.142 143.453 124.782C141.463 126.385 138.498 127.978 134.711 129.387C127.149 132.201 116.55 134.195 104.58 134.195C92.6071 134.195 81.3257 132.2 73.2463 129.378C69.196 127.963 66.0307 126.368 63.9891 124.77C61.8731 123.115 61.3444 121.78 61.5245 120.855C61.9141 118.854 63.8447 117.361 66.7497 116.359C69.5715 115.386 72.8427 115.052 74.9817 115.052H134.179C136.322 115.052 139.512 115.387 142.113 116.349ZM143.062 113.784C140.057 112.673 136.52 112.318 134.179 112.318H74.9817C72.636 112.318 69.0457 112.675 65.8581 113.774C62.7537 114.845 59.527 116.806 58.8402 120.332C58.3477 122.862 60.0052 125.125 62.3038 126.924C64.6767 128.781 68.1543 130.496 72.3445 131.96C80.7461 134.895 92.3363 136.93 104.58 136.93C116.827 136.93 127.755 134.894 135.665 131.95C139.613 130.481 142.871 128.763 145.169 126.912C147.421 125.098 149 122.948 149 120.594C149 116.913 145.982 114.864 143.062 113.784Z" fill="#36414F"/>
<path d="M62.8572 98.6441C62.8572 100.91 64.6937 102.746 66.9592 102.746C69.2247 102.746 71.0613 100.91 71.0613 98.6441C71.0613 96.3786 69.2247 94.5421 66.9592 94.5421C64.6937 94.5421 62.8572 96.3786 62.8572 98.6441Z" fill="#36414F"/>
<path d="M82.0001 98.6441C82.0001 100.91 83.8366 102.746 86.1021 102.746C88.3676 102.746 90.2041 100.91 90.2041 98.6441C90.2041 96.3786 88.3676 94.5421 86.1021 94.5421C83.8366 94.5421 82.0001 96.3786 82.0001 98.6441Z" fill="#36414F"/>
<path d="M43.346 124.811C52.8625 127.729 43.2973 161.027 37.3251 177.312L16.9876 171.076C22.607 150.009 31.4505 121.164 43.346 124.811Z" fill="white"/>
<path fill-rule="evenodd" clip-rule="evenodd" d="M36.483 175.623L18.6497 170.156C21.4078 159.907 24.8825 148.151 29.0514 139.256C31.2282 134.612 33.5405 130.867 35.953 128.519C38.3415 126.194 40.6265 125.408 42.9452 126.119C44.4372 126.576 45.5545 128.343 45.8982 132.081C46.2293 135.681 45.7656 140.481 44.7984 145.805C42.9636 155.905 39.385 167.539 36.483 175.623ZM48.6214 131.83C48.2687 127.995 47.013 124.505 43.7468 123.504C40.1178 122.391 36.8365 123.843 34.0456 126.559C31.2787 129.252 28.7986 133.352 26.5751 138.096C22.1173 147.607 18.4752 160.194 15.6664 170.724L15.3267 171.997L38.1628 178.999L38.6088 177.783C41.6097 169.6 45.5217 157.124 47.4891 146.293C48.4702 140.892 48.9867 135.803 48.6214 131.83Z" fill="#36414F"/>
<path fill-rule="evenodd" clip-rule="evenodd" d="M37.3902 104.403C38.0812 104.708 38.3946 105.515 38.09 106.206C37.5789 107.366 37.0499 109.131 37.0505 110.663C37.0509 111.421 37.1816 112.021 37.4162 112.449C37.629 112.838 37.958 113.148 38.5403 113.327C39.7248 113.69 40.6706 113.977 41.495 114.112C42.3082 114.244 42.8383 114.197 43.228 114.03C43.5908 113.875 44.0159 113.536 44.4544 112.692C44.9047 111.825 45.325 110.506 45.6838 108.534C45.8189 107.791 46.5308 107.298 47.2738 107.433C48.0167 107.568 48.5095 108.28 48.3743 109.023C47.9939 111.115 47.5124 112.737 46.8811 113.952C46.2379 115.19 45.4016 116.074 44.3057 116.543C43.2369 117.002 42.1113 116.983 41.0545 116.811C40.0271 116.643 38.91 116.301 37.798 115.96L37.7387 115.941C36.4683 115.552 35.5696 114.771 35.0176 113.763C34.4873 112.795 34.3163 111.693 34.3158 110.664C34.3149 108.619 34.9883 106.463 35.5875 105.103C35.8921 104.412 36.6991 104.099 37.3902 104.403Z" fill="#36414F"/>
<path fill-rule="evenodd" clip-rule="evenodd" d="M42.3781 105.922C43.1001 106.144 43.5059 106.909 43.2846 107.631C42.0999 111.494 39.6091 121.472 39.1437 130.327C39.1041 131.081 38.4606 131.66 37.7065 131.621C36.9524 131.581 36.3731 130.938 36.4128 130.183C36.8943 121.022 39.4498 110.809 40.67 106.829C40.8913 106.107 41.6561 105.701 42.3781 105.922Z" fill="#36414F"/>
<path d="M24.3579 23.3687C12.3393 38.5371 27.0964 49.6974 35.9773 53.3815L32.6072 76.0533L52.4475 70.1787L76.7634 66.3713L90.6954 66.9579L93.1856 65.1839L87.2292 53.6605L84.6092 45.7667L89.8013 43.5697L94.5702 38.671L96.2144 31.4935L96.0846 21.8258L87.8495 13.4272L81.8114 10.2206L73.7061 11.4898L69.865 13.4752L68.3026 12.3358L64.9662 8.70623L56.4379 7.27359L47.1932 10.1051L42.4242 15.0039L40.1455 18.1287L30.4778 18.2585L24.3579 23.3687Z" fill="#D3DFF7"/>
<path fill-rule="evenodd" clip-rule="evenodd" d="M69.9623 11.7644C64.88 6.2693 57.9471 5.65328 54.6 6.17738C54.5719 6.18178 54.5439 6.18706 54.5161 6.19321C46.4655 7.97436 42.24 11.7667 40.4968 16.1864C38.898 15.6825 37.0242 15.5757 35.1167 15.803C32.6089 16.1019 29.9121 16.9918 27.4537 18.4911C22.5002 21.5122 18.4814 27.0438 19.0065 35.1534C19.4249 41.6147 22.5075 46.2209 26.1565 49.3183C29.2151 51.9146 32.6871 53.4687 35.3894 54.2209L29.9302 75.9314C29.8037 76.4344 29.9728 76.9657 30.3666 77.3032C30.7605 77.6407 31.3114 77.7262 31.7891 77.5241C41.9987 73.204 55.9468 70.4388 68.2933 68.9079C74.4525 68.1442 80.1822 67.6913 84.8052 67.5034C89.47 67.3139 92.9 67.3994 94.5214 67.6718C95.0304 67.7573 95.5442 67.5489 95.8498 67.133C96.1554 66.7171 96.2008 66.1646 95.9672 65.7044L86.4304 46.9192C86.5627 46.878 86.6942 46.8334 86.8244 46.786C87.7474 46.4494 88.7385 45.9208 89.7294 45.2402C91.7112 43.8792 93.7929 41.8414 95.4222 39.2789C98.7146 34.1005 100.159 26.7486 95.2008 18.6639C91.2519 12.2246 86.018 9.74502 81.0487 9.37312C76.7339 9.05021 72.7047 10.3183 69.9623 11.7644ZM71.6956 13.9506C74.0517 12.7981 77.3667 11.8399 80.8446 12.1002C84.9458 12.4071 89.3844 14.4104 92.8696 20.0935C97.2043 27.1619 95.9298 33.3836 93.1144 37.8116C91.6897 40.0524 89.8702 41.826 88.1812 42.986C87.3368 43.5659 86.5501 43.9752 85.8877 44.2167C85.7437 44.2692 85.6107 44.3119 85.4886 44.3463L84.627 38.8439C84.5102 38.0978 83.8107 37.5877 83.0646 37.7046C82.3185 37.8214 81.8084 38.5209 81.9252 39.267L82.9828 46.0214C83.0051 46.1633 83.0495 46.3008 83.1145 46.4288L92.4064 64.7317C90.4055 64.6335 87.7605 64.6464 84.6941 64.771C79.9911 64.9621 74.186 65.4216 67.9568 66.194C56.4872 67.6162 43.4736 70.112 33.2359 73.999L38.3788 53.5466C38.4236 53.3684 38.432 53.1831 38.4036 53.0016L37.346 46.2472C37.2292 45.5011 36.5296 44.991 35.7836 45.1078C35.0375 45.2246 34.5274 45.9242 34.6442 46.6702L35.379 51.3628C33.1342 50.6388 30.3753 49.3123 27.9262 47.2334C24.7384 44.5275 22.0978 40.5724 21.7355 34.9767C21.2847 28.0151 24.6718 23.3909 28.8777 20.8259C30.999 19.5321 33.3202 18.7712 35.4404 18.5185C37.1342 18.3166 38.6205 18.447 39.753 18.8201C38.9427 23.3335 40.3407 27.863 41.9235 30.7719C42.2845 31.4352 43.1148 31.6803 43.7781 31.3194C44.4414 30.9584 44.6866 30.1281 44.3256 29.4648C42.8059 26.6719 41.5891 22.3408 42.6536 18.3657C43.6754 14.5497 46.9051 10.6889 55.064 8.87285C57.9516 8.43584 64.2854 9.0574 68.6031 14.3691C69.1607 15.0552 69.6881 15.8227 70.1728 16.681C70.5442 17.3386 71.3782 17.5706 72.0358 17.1992C72.6933 16.8279 72.9254 15.9938 72.554 15.3362C72.2804 14.8517 71.9938 14.3902 71.6956 13.9506ZM73.4715 37.8226L73.6646 36.469C74.4122 36.5756 74.9318 37.2681 74.8251 38.0157C74.7185 38.7632 74.0263 39.2827 73.2789 39.1764C73.2791 39.1764 73.2788 39.1763 73.2789 39.1764L73.2734 39.1756L73.2472 39.172L73.1328 39.1573C73.0296 39.1444 72.8732 39.1258 72.6678 39.1041C72.2568 39.0607 71.6502 39.0047 70.8816 38.9567C69.3433 38.8606 67.1617 38.7967 64.6042 38.9267C59.4713 39.1878 52.9137 40.2263 47.007 43.2794C46.3362 43.6262 45.5113 43.3635 45.1645 42.6926C44.8178 42.0218 45.0805 41.1968 45.7513 40.8501C52.1363 37.5497 59.1249 36.4672 64.4653 36.1956C67.1444 36.0593 69.4311 36.1261 71.0521 36.2273C71.8631 36.278 72.5088 36.3374 72.9553 36.3846C73.1786 36.4082 73.3521 36.4287 73.4717 36.4437L73.6102 36.4615L73.6481 36.4667L73.659 36.4682L73.6646 36.469C73.6651 36.4691 73.6646 36.469 73.4715 37.8226Z" fill="#36414F"/>
<path fill-rule="evenodd" clip-rule="evenodd" d="M91.5714 80.8686C91.5714 80.1134 90.9593 79.5012 90.2041 79.5012L82 79.5012C81.2449 79.5012 80.6327 80.1134 80.6327 80.8686C80.6327 81.6237 81.2449 82.2359 82 82.2359L90.2041 82.2359C90.9593 82.2359 91.5714 81.6237 91.5714 80.8686Z" fill="#36414F"/>
<path fill-rule="evenodd" clip-rule="evenodd" d="M72.4286 80.8686C72.4286 80.1134 71.8164 79.5012 71.0613 79.5012H62.8572C62.102 79.5012 61.4898 80.1134 61.4898 80.8686C61.4898 81.6237 62.102 82.2359 62.8572 82.2359H71.0613C71.8164 82.2359 72.4286 81.6237 72.4286 80.8686Z" fill="#36414F"/>
</g>
<defs>
<clipPath id="clip0_82_34">
<rect width="157" height="157" fill="white"/>
</clipPath>
</defs>
</svg>
